<svg width="20" height="20" viewBox="0 0 20 20" fill="none" xmlns="http://www.w3.org/2000/svg">
<g clip-path="url(#clip0)">
<path d="M14.1666 17.5V15.8333C14.1666 14.9493 13.8154 14.1014 13.1903 13.4763C12.5652 12.8512 11.7173 12.5 10.8333 12.5H4.16659C3.28253 12.5 2.43468 12.8512 1.80956 13.4763C1.18444 14.1014 0.833252 14.9493 0.833252 15.8333V17.5" stroke="#FAFAFA" stroke-width="2" stroke-linecap="round" stroke-linejoin="round"/>
<path d="M7.50008 9.16667C9.34103 9.16667 10.8334 7.67428 10.8334 5.83333C10.8334 3.99238 9.34103 2.5 7.50008 2.5C5.65913 2.5 4.16675 3.99238 4.16675 5.83333C4.16675 7.67428 5.65913 9.16667 7.50008 9.16667Z" stroke="#FAFAFA" stroke-width="2" stroke-linecap="round" stroke-linejoin="round"/>
<path d="M19.1667 17.4999V15.8333C19.1662 15.0947 18.9204 14.3773 18.4679 13.7935C18.0154 13.2098 17.3819 12.7929 16.6667 12.6083" stroke="#FAFAFA" stroke-width="2" stroke-linecap="round" stroke-linejoin="round"/>
<path d="M13.3333 2.60828C14.0503 2.79186 14.6858 3.20886 15.1396 3.79354C15.5935 4.37821 15.8398 5.0973 15.8398 5.83744C15.8398 6.57759 15.5935 7.29668 15.1396 7.88135C14.6858 8.46603 14.0503 8.88303 13.3333 9.06661" stroke="#FAFAFA" stroke-width="2" stroke-linecap="round" stroke-linejoin="round"/>
</g>
<defs>
<clipPath id="clip0">
<rect width="20" height="20" fill="white"/>
</clipPath>
</defs>
</svg>
